<?xml version="1.0" encoding="UTF-8"?>
<svg id="Layer_2" data-name="Layer 2" xmlns="http://www.w3.org/2000/svg" viewBox="0 0 175.08 120.47">
  <defs>
    <style>
      .cls-1 {
        fill: #fda560;
      }

      .cls-1, .cls-2 {
        stroke-width: 0px;
      }

      .cls-2 {
        fill: #838bc5;
      }
    </style>
  </defs>
  <g id="Layer_1-2" data-name="Layer 1">
    <g>
      <path class="cls-2" d="m88.9,90.19c-2.79-2.23-5.57-4.38-8.18-6.75-2.61-2.37-5.3-4.66-7.94-6.99-2.16-1.91-4.31-3.82-6.46-5.74-.22-.19-.59-.36-.49-.68.13-.43.58-.26.9-.27,2.5-.01,5,0,7.5,0,12.37,0,24.73.01,37.1-.02,1.02,0,1.76.28,2.51,1,6.08,5.85,12.2,11.67,18.31,17.49,4.8,4.57,9.62,9.13,14.43,13.69,6.06,5.74,12.13,11.48,18.2,17.22.25.24.5.47.73.73.27.31.23.55-.22.6-.26.03-.52.02-.77.02-34.99,0-69.98.03-104.97-.08-5.52-.02-11.02-.73-16.49-1.82-6.59-1.31-12.87-3.34-18.84-6.39-5.85-3-10.85-7.01-14.97-12.19-2.96-3.72-5.16-7.81-6.79-12.22-1.22-3.31-1.82-6.77-2.18-10.29-.64-6.35-.02-12.6,1.16-18.84.87-4.57,2.06-9.04,3.74-13.36,2.48-6.41,5.81-12.35,10.21-17.67,4.93-5.98,10.93-10.64,17.66-14.43,5.12-2.89,10.58-4.96,16.11-6.81,3.77-1.26,7.68-2.09,11.6-2.83,3.67-.7,7.35-1.35,11.04-1.83,4.56-.6,9.12-1.21,13.73-1.21.33,0,.77-.16.96.16.23.39-.15.71-.36,1.02-6.85,9.93-13.74,19.85-20.55,29.82-1.12,1.64-2.85,1.68-4.42,2.03-10.31,2.3-17.75,7.91-21.33,18.11-2.27,6.48-3.4,13.14-3.04,20.01.36,6.84,5.73,13.54,12.2,15.73,5.28,1.79,10.7,2.48,16.21,2.58,5.26.09,10.51.08,15.77.04,2.38-.02,4.7.57,7.07.49.25,0,.52.07.86-.28Z"/>
      <path class="cls-1" d="m165.91,109.69c-2.09-1.42-3.58-3.16-5.23-4.7-6.64-6.19-13.25-12.41-19.87-18.63-2.98-2.8-5.93-5.64-8.93-8.41-.79-.73-.9-1.28-.19-2.15,2.44-2.98,3.89-6.47,4.8-10.17,1.23-4.98,1.88-10.04,1.62-15.2-.32-6.35-2.94-11.26-8.69-14.34-3.58-1.92-7.39-2.94-11.37-3.57-5.32-.84-10.68-1.02-16.05-1.32-6.16-.35-12.32-.2-18.47-.13-2.58.03-5.15.3-7.72.43-.41.02-.95.22-1.21-.18-.33-.51.25-.87.49-1.22,6.41-9.3,12.84-18.59,19.27-27.88.29-.42.59-.85.86-1.28C95.64.25,96.21,0,97.04,0c13.36.02,26.72-.03,40.07.06,2.8.02,5.44,1.17,8.08,2.07,6.14,2.1,11.46,5.52,15.94,10.18,5.51,5.73,9.38,12.44,11.6,20.1,1.68,5.78,2.48,11.66,2.33,17.67-.11,4.52-.74,8.98-1.57,13.42-.81,4.32-2.59,8.24-4.43,12.2-1.59,3.41-3.31,6.69-5.58,9.69-.67.89-1.38,1.76-2.14,2.57-.52.55-.55,1.09-.38,1.77,1.66,6.4,3.3,12.81,4.94,19.22.04.15,0,.33,0,.73Z"/>
    </g>
  </g>
</svg>